<?xml version="1.0" standalone="no"?>
<!DOCTYPE svg PUBLIC "-//W3C//DTD SVG 20010904//EN"
 "http://www.w3.org/TR/2001/REC-SVG-20010904/DTD/svg10.dtd">
<svg version="1.0" xmlns="http://www.w3.org/2000/svg"
 width="200.000000pt" height="200.000000pt" viewBox="0 0 200.000000 200.000000"
 preserveAspectRatio="xMidYMid meet">
<metadata>
Created by potrace 1.14, written by Peter Selinger 2001-2017
</metadata>
<g transform="translate(0.000000,200.000000) scale(0.100000,-0.100000)"
fill="#000000" stroke="none">
<path d="M978 1483 c-3 -7 -2 -686 1 -750 1 -18 6 -22 24 -19 l22 3 3 386 2
387 -24 0 c-14 0 -26 -3 -28 -7z"/>
<path d="M635 1418 c-11 -6 -21 -12 -22 -13 -2 -1 44 -114 101 -251 57 -137
120 -292 141 -344 46 -115 54 -125 80 -106 19 14 19 16 -12 88 -18 40 -60 141
-93 223 -34 83 -67 164 -75 180 -7 17 -32 76 -55 133 -23 56 -43 102 -44 102
0 0 -10 -6 -21 -12z"/>
<path d="M1296 1302 c-27 -64 -86 -207 -131 -317 -46 -110 -90 -216 -98 -236
-16 -35 -16 -36 8 -47 13 -6 26 -8 29 -4 2 4 36 86 76 182 40 96 94 227 120
290 27 63 59 142 73 175 18 43 22 62 14 67 -31 20 -43 5 -91 -110z"/>
<path d="M318 1204 c-15 -16 3 -36 258 -290 267 -267 274 -273 294 -257 20 17
15 23 -252 290 -150 150 -275 273 -278 273 -3 0 -13 -7 -22 -16z"/>
<path d="M1387 948 c-261 -262 -268 -270 -251 -289 17 -19 19 -19 67 28 43 42
486 487 496 498 6 7 -20 35 -33 34 -6 0 -132 -122 -279 -271z"/>
<path d="M116 904 c-12 -32 -5 -42 42 -59 26 -10 65 -26 87 -36 22 -10 101
-43 175 -73 74 -30 194 -79 266 -109 l132 -55 11 24 c10 23 8 26 -26 41 -21 8
-105 43 -188 78 -82 35 -211 88 -285 118 -74 31 -151 62 -172 71 -33 14 -37
14 -42 0z"/>
<path d="M1790 878 c-52 -21 -111 -45 -130 -53 -47 -18 -274 -112 -319 -131
-20 -9 -45 -19 -56 -24 -55 -20 -115 -51 -115 -58 0 -4 6 -15 13 -24 11 -14
39 -4 247 84 129 55 246 103 260 108 48 16 194 80 202 88 5 5 5 18 1 29 -8 21
-10 20 -103 -19z"/>
<path d="M58 552 c-19 -4 -30 -39 -15 -49 6 -3 181 -7 389 -7 l378 -1 0 28 c0
15 -3 27 -7 28 -34 2 -733 3 -745 1z"/>
<path d="M1207 552 c-11 -2 -15 -11 -13 -25 3 -12 5 -24 5 -27 1 -3 173 -5
384 -5 l382 1 3 27 c2 15 0 27 -5 28 -39 2 -743 3 -756 1z"/>
</g>
</svg>
